<svg width="149" height="149" viewBox="0 0 149 149" fill="none" xmlns="http://www.w3.org/2000/svg">
<path d="M38.7176 66.2692C38.5942 66.0942 38.4839 65.9105 38.3873 65.7194C36.9743 62.9311 38.5671 59.0268 38.6356 58.8619C38.7007 58.705 38.881 58.6305 39.0384 58.6956C39.1954 58.7611 39.2699 58.9414 39.2048 59.0984C39.1889 59.1361 37.6527 62.9083 38.9381 65.4423C39.474 66.5007 40.4435 67.2059 41.8178 67.5402C46.546 68.692 49.746 64.882 52.8408 61.1978C54.1028 59.6948 55.2953 58.2759 56.5509 57.2562C58.0791 56.0155 58.397 56.241 59.6456 57.5115C60.8917 58.779 63.2112 61.1382 69.2164 64.5066C69.3654 64.5895 69.418 64.7772 69.3346 64.9262C69.2945 64.9975 69.2278 65.05 69.1492 65.0721C69.0705 65.0943 68.9862 65.0843 68.9149 65.0444C62.8327 61.6328 60.4731 59.2329 59.2061 57.9436C58.0856 56.8038 58.0856 56.8037 56.9393 57.7345C55.7294 58.7169 54.5553 60.1145 53.3126 61.5941C50.2467 65.2441 46.772 69.3808 41.6717 68.1387C40.3595 67.8198 39.3687 67.192 38.7176 66.2692Z" fill="#77C6EE"/>
<path d="M78.9137 135.799C91.3431 135.799 101.419 135.279 101.419 134.637C101.419 133.995 91.3431 133.475 78.9137 133.475C66.4842 133.475 56.4082 133.995 56.4082 134.637C56.4082 135.279 66.4842 135.799 78.9137 135.799Z" fill="#72AADA"/>
<path d="M63.6161 99.1819C63.6161 99.1819 65.1926 99.1943 65.1886 101.7C65.1841 104.206 63.0688 111.451 61.1676 110.856C59.2663 110.26 59.8792 105.04 60.3888 103.441C60.8974 101.842 61.5932 99.5877 63.6161 99.1819Z" fill="#2B4C54"/>
<path d="M63.3723 99.4053C63.7955 99.4003 64.6507 99.9844 64.7217 100.428C64.8976 101.528 64.6751 102.539 63.9161 102.954C63.5188 103.172 62.6015 102.607 62.4281 102.231C61.5321 100.29 62.6278 99.4137 63.3723 99.4053Z" fill="#FDAE88"/>
<path d="M61.5499 109.444C60.267 109.145 60.1537 107.636 60.7016 105.1C61.2494 102.563 63.3493 102.813 63.8221 104.511C64.2939 106.208 62.5785 109.685 61.5499 109.444Z" fill="#395B64"/>
<path d="M78.2481 79.0734C78.2481 79.0734 64.1105 110.965 52.7284 106.465C41.8603 102.168 62.323 77.4751 62.323 77.4751L78.2481 79.0734Z" fill="#395B64"/>
<path d="M92.2476 128.11C92.2476 128.11 93.1133 127.63 93.8861 128.866C94.6589 130.101 95.7436 134.322 94.5203 134.615C93.297 134.908 92.0171 132.148 91.8006 131.203C91.5845 130.258 91.2676 128.934 92.2476 128.11Z" fill="#2B4C54"/>
<path d="M90.4844 126.991C90.4844 126.991 92.6528 125.324 92.696 125.633C92.917 127.213 93.2359 128.35 93.221 129.428C93.2165 129.742 92.2461 129.757 92.0777 129.525C90.9537 127.974 90.4844 126.991 90.4844 126.991Z" fill="#FDCEA3"/>
<path d="M94.4808 134.132C93.6871 134.38 93.1581 133.672 92.6729 132.254C92.1876 130.835 93.4129 130.311 94.1962 131.001C94.9799 131.692 95.1175 133.933 94.4808 134.132Z" fill="#395B64"/>
<path opacity="0.2" d="M94.546 132.115C94.4944 131.859 94.404 131.661 94.2887 131.511C94.2059 131.584 94.127 131.661 94.0523 131.742C94.1934 131.917 94.32 132.161 94.327 132.48C94.3419 133.214 94.319 133.237 94.319 133.237C94.319 133.237 94.6677 132.716 94.546 132.115ZM93.9843 131.318C93.8964 131.281 93.7961 131.33 93.7767 131.423C93.7643 131.483 93.7881 131.543 93.8378 131.577C93.879 131.605 93.9326 131.645 93.9903 131.697C94.0648 131.617 94.1432 131.54 94.2252 131.467C94.1502 131.405 94.0697 131.354 93.9843 131.318Z" fill="white"/>
<path d="M83.1498 78.2493C83.1498 78.2493 85.9932 93.6917 93.253 126.77C93.4189 127.524 90.5993 128.605 90.2313 127.976C80.9426 112.095 62.998 77.9578 62.998 77.9578L83.1498 78.2493Z" fill="#395B64"/>
<path opacity="0.25" d="M80.8271 110.562C80.8117 110.073 80.6965 109.645 80.538 109.182C80.2013 108.2 79.73 107.052 80.1799 106.024C80.3488 105.639 80.6592 105.413 80.9533 105.131C81.2051 104.89 81.3873 104.557 81.5041 104.23C81.6873 103.716 81.655 103.167 81.4554 102.662C80.9667 101.427 79.8611 100.476 78.9085 99.5981C77.9598 98.724 76.8697 97.8523 76.2453 96.6991C76 96.2451 75.855 95.7182 75.9469 95.2021C75.9947 94.9331 76.0953 94.6762 76.2429 94.4462C76.4778 94.0811 76.8846 93.9535 77.2794 93.8333C77.7398 93.6933 78.1804 93.5631 78.1958 93.0079C78.2087 92.5311 77.9891 92.0552 77.7825 91.6371C77.4304 90.9223 77.0028 90.2484 76.6253 89.5476C75.9349 88.2662 74.9972 86.3471 75.781 84.9142C76.2329 84.0882 77.1925 83.7217 78.0984 83.8563C79.2333 84.0246 80.1477 84.7309 81.1748 85.1774C82.3077 85.6701 83.4709 85.8991 84.6484 85.9651C83.6154 80.7745 83.1505 78.2499 83.1505 78.2499L67.8358 78.0284L62.3228 77.4751C62.3228 77.4751 61.5182 78.4471 60.3143 80.0349C61.4432 81.8125 63.1731 83.1853 65.198 83.7942C66.0235 84.042 66.8683 84.0485 67.7057 84.2203C68.4149 84.3658 69.0447 84.7026 69.2215 85.4575C69.4554 86.4568 68.9925 87.5043 68.2743 88.1817C67.5219 88.892 66.6279 89.3549 65.713 89.8098C65.1245 90.1024 63.9583 90.6333 64.2489 91.4801C64.4525 92.0731 65.0902 92.4888 65.4856 92.9482C65.9658 93.5065 66.2246 94.1745 65.9827 94.9016C65.6932 95.7738 64.9775 96.415 64.1833 96.8312C63.3479 97.2693 62.4127 97.4987 61.4988 97.7083C61.0603 97.8091 60.6197 97.902 60.1846 98.0172C59.9522 98.0793 59.3453 98.1876 59.2598 98.4533C59.2211 98.5735 59.4372 98.9063 59.5206 99.0572C59.7148 99.4084 59.8921 99.761 60.0068 100.147C60.2492 100.966 60.1384 101.789 59.7049 102.522C58.8183 104.021 56.9926 104.907 55.4211 105.489C54.4076 105.863 53.356 106.125 52.2852 106.269C52.4272 106.338 52.5737 106.404 52.7282 106.466C58.8506 108.886 65.7697 100.777 70.8575 92.766C73.8574 98.3778 77.3842 104.93 80.8226 111.21C80.8311 110.993 80.8341 110.778 80.8271 110.562Z" fill="#2B4C54"/>
<path d="M52.4627 36.285L63.8964 46.2839L58.9248 51.1135C58.9248 51.1135 48.399 41.3207 47.6698 37.7506C46.9407 34.1806 52.4627 36.285 52.4627 36.285Z" fill="#FDAE88"/>
<path d="M47.1211 22.2075C46.243 22.4539 46.023 22.4395 45.1836 22.7986C45.426 26.2951 46.6363 41.881 50.9012 40.4858C55.8048 38.8816 47.8616 26.3452 47.1211 22.2075Z" fill="#FDAE88"/>
<path d="M44.1407 21.6537C44.2341 21.8296 44.3439 21.988 44.4566 22.1271C44.8043 22.5557 45.1822 22.7986 45.1822 22.7986L45.2861 24.2632C46.0852 24.225 47.3954 23.7795 47.2966 23.3235C47.2966 23.3235 46.9042 22.6381 47.1918 21.987C47.1928 21.981 47.1967 21.9741 47.1997 21.9691C47.3179 21.8539 47.3969 21.5966 47.4307 21.3011C47.4535 21.0975 47.4555 20.8755 47.4361 20.6683C47.3879 20.1622 48.4593 19.2717 48.2412 19.0457C48.0222 18.8203 47.2608 19.1689 47.1034 19.5613C46.9459 19.9522 46.5968 19.8066 46.4855 19.4202C46.3142 18.8237 46.1214 15.8859 45.6943 15.9401C45.2672 15.9942 45.4688 18.9037 45.4688 18.9037C45.4688 18.9037 44.6866 15.6441 44.3012 15.9133C43.9172 16.1825 44.7139 19.159 44.7139 19.159C44.7139 19.159 43.951 16.8366 43.5164 16.8659C43.0814 16.8937 43.8954 19.5871 43.8954 19.5871C43.8954 19.5871 43.1335 18.0147 42.7451 18.0688C42.3562 18.1234 43.7613 20.9341 44.1407 21.6537Z" fill="#FDAE88"/>
<path opacity="0.1" d="M46.8054 22.4528C46.6187 22.6729 46.3331 22.7816 46.053 22.8204C45.7753 22.8586 45.4748 22.8313 45.2245 22.6977C45.1505 22.658 45.0864 22.6083 45.0273 22.5527C45.0686 22.573 45.1093 22.5914 45.15 22.6053C45.6477 22.7767 46.0559 22.3619 46.0559 22.3619C46.1722 22.4017 46.6395 22.2919 47.0026 22.1012C46.947 22.2239 46.8938 22.349 46.8054 22.4528Z" fill="#231F20"/>
<path opacity="0.2" d="M44.1407 21.6536C44.2341 21.8294 44.3439 21.9879 44.4566 22.1269C44.6543 22.3172 44.9091 22.5228 45.1495 22.6047C45.6471 22.7761 46.0554 22.3614 46.0554 22.3614C46.1935 22.4091 46.8262 22.2456 47.1918 21.9864C47.1928 21.9804 47.1967 21.9735 47.1997 21.9685C47.3179 21.8533 47.3969 21.596 47.4307 21.3005C47.4535 21.0969 47.4555 20.8748 47.4361 20.6677C47.3879 20.1616 48.4593 19.2711 48.2412 19.0451C48.0222 18.8196 47.2608 19.1683 47.1034 19.5607C46.9459 19.9515 46.5968 19.806 46.4855 19.4196C46.3142 18.8231 46.1214 15.8853 45.6943 15.9395C45.2672 15.9936 45.4688 18.9031 45.4688 18.9031C45.4688 18.9031 44.6866 15.6435 44.3012 15.9127C43.9172 16.1818 44.7139 19.1584 44.7139 19.1584C44.7139 19.1584 43.951 16.836 43.5164 16.8653C43.0814 16.8931 43.8954 19.5865 43.8954 19.5865C43.8954 19.5865 43.1335 18.014 42.7451 18.0682C42.3562 18.1233 43.7613 20.934 44.1407 21.6536Z" fill="white"/>
<path d="M43.75 19.7768C43.894 19.67 44.0391 19.5667 44.1896 19.4718C44.3395 19.378 44.493 19.2871 44.6574 19.227C44.8218 19.1634 44.9937 19.1137 45.165 19.0686C45.3368 19.0243 45.5112 18.9871 45.6895 18.9687C45.5097 18.9593 45.3299 18.9836 45.1536 19.0179C44.9768 19.0527 44.8044 19.1038 44.6336 19.1634C44.4632 19.2305 44.3073 19.3238 44.1602 19.4276C44.0137 19.5334 43.8752 19.6482 43.75 19.7768Z" fill="#FA9C70"/>
<path d="M95.9732 58.7999L82.4241 51.9349L79.8047 58.3519C79.8047 58.3519 91.8687 64.7946 95.4522 64.136C99.0351 63.4775 95.9732 58.7999 95.9732 58.7999Z" fill="#FDAE88"/>
<path d="M107.253 50.6639C107.833 51.3672 108.022 51.481 108.506 52.2558C106.311 54.9879 96.4176 67.0922 93.7127 63.5117C90.6026 59.3943 104.282 53.638 107.253 50.6639Z" fill="#FDAE88"/>
<path d="M110.014 51.9106C109.837 52.0015 109.657 52.0691 109.484 52.1187C108.954 52.2722 108.505 52.2558 108.505 52.2558L107.583 53.3986C106.949 52.9109 106.127 51.7974 106.469 51.479C106.469 51.479 107.182 51.1403 107.318 50.442C107.321 50.4365 107.322 50.4286 107.322 50.4226C107.291 50.2602 107.373 50.0044 107.514 49.7427C107.615 49.5569 107.735 49.3818 107.871 49.2202C108.2 48.8323 107.829 47.4893 108.137 47.4282C108.446 47.3681 108.871 48.0893 108.776 48.501C108.683 48.9122 109.052 48.9917 109.364 48.7379C109.845 48.346 111.681 46.0445 112.001 46.3331C112.321 46.6216 110.494 48.8949 110.494 48.8949C110.494 48.8949 112.997 46.6653 113.16 47.1069C113.322 47.5469 110.968 49.5361 110.968 49.5361C110.968 49.5361 112.921 48.0654 113.261 48.3371C113.602 48.6083 111.396 50.3546 111.396 50.3546C111.396 50.3546 112.919 49.4983 113.207 49.765C113.495 50.0312 110.737 51.5366 110.014 51.9106Z" fill="#FDAE88"/>
<path opacity="0.1" d="M107.371 51.0455C107.398 51.3325 107.571 51.5848 107.778 51.7766C107.984 51.9668 108.247 52.1158 108.528 52.1491C108.612 52.159 108.693 52.1545 108.773 52.1426C108.728 52.1356 108.684 52.1272 108.642 52.1158C108.136 51.9722 108.038 51.3991 108.038 51.3991C107.919 51.3653 107.598 51.0087 107.409 50.6447C107.385 50.7768 107.358 50.9094 107.371 51.0455Z" fill="#231F20"/>
<path opacity="0.2" d="M110.014 51.9106C109.837 52.0015 109.657 52.0691 109.485 52.1187C109.214 52.1624 108.887 52.1853 108.643 52.1153C108.136 51.9717 108.038 51.3986 108.038 51.3986C107.897 51.3588 107.471 50.8632 107.319 50.4415C107.322 50.436 107.323 50.4281 107.323 50.4221C107.292 50.2597 107.374 50.0039 107.515 49.7422C107.616 49.5564 107.735 49.3813 107.872 49.2197C108.201 48.8318 107.83 47.4888 108.138 47.4277C108.446 47.3676 108.872 48.0888 108.777 48.5005C108.683 48.9118 109.053 48.9912 109.365 48.7374C109.846 48.3456 111.682 46.044 112.002 46.3326C112.321 46.6211 110.495 48.8944 110.495 48.8944C110.495 48.8944 112.998 46.6648 113.161 47.1064C113.323 47.5464 110.969 49.5356 110.969 49.5356C110.969 49.5356 112.921 48.0649 113.262 48.3366C113.603 48.6078 111.397 50.3541 111.397 50.3541C111.397 50.3541 112.92 49.4978 113.208 49.7645C113.495 50.0312 110.737 51.5366 110.014 51.9106Z" fill="white"/>
<path d="M111.408 50.5935C111.351 50.4236 111.291 50.2558 111.222 50.0924C111.152 49.9294 111.077 49.7675 110.977 49.6245C110.878 49.4785 110.766 49.3394 110.651 49.2043C110.535 49.0697 110.413 48.9396 110.277 48.8229C110.43 48.9177 110.564 49.0404 110.689 49.1695C110.815 49.2992 110.926 49.4392 111.033 49.5858C111.135 49.7382 111.21 49.9041 111.271 50.073C111.331 50.2428 111.379 50.4162 111.408 50.5935Z" fill="#FA9C70"/>
<path d="M91.5582 55.8427C80.3573 46.6584 80.78 50.1221 73.5739 48.1419C73.5739 48.1419 66.1214 47.6989 61.193 43.3913C59.3528 41.7826 57.2539 50.8338 57.2539 50.8338C57.2539 50.8338 60.3476 55.4916 63.9018 57.7703C62.6403 66.9388 57.7516 78.4043 60.3139 80.0349C63.1632 81.8477 80.416 82.2927 83.2648 80.2539C85.0633 78.9665 83.98 68.2728 82.7955 61.7689C83.4531 61.8534 85.5108 63.0792 88.4977 63.7313C91.4067 62.3327 91.5582 55.8427 91.5582 55.8427Z" fill="#8CD2FE"/>
<path opacity="0.1" d="M83.5902 68.4222C83.5117 69.8194 83.3548 71.2115 83.031 72.5863C82.5179 74.7642 81.533 77.0488 79.5831 78.6272C77.3819 80.4093 74.4193 80.5647 71.5441 80.8429C68.5814 81.129 61.5794 80.5454 62.0284 80.6541C64.3633 81.2208 77.1922 82.7208 83.2659 80.2533C84.9347 79.5754 84.4023 73.8771 83.5902 68.4222Z" fill="#231F20"/>
<path d="M79.6649 84.6653C79.6649 84.6653 82.4378 86.798 84.0018 87.0349V87.7933C84.0018 87.7933 81.1574 86.9405 79.6649 85.2816V84.6653ZM61.6627 81.9619C60.9316 83.1932 58.94 84.1905 58.94 84.1905L58.9375 84.8237C60.5467 84.3712 62.145 82.3443 62.145 82.3443L61.6627 81.9619Z" fill="#2B4C54"/>
<path d="M113.75 55.2189L125.374 56.9666L123.864 60.7314L113.75 55.2189Z" fill="#EEEDF7"/>
<path d="M59.7419 25.043L55.1373 14.6433L59.5184 13.8436L59.7419 25.043ZM108.806 36.2736L115.086 26.7912L118.121 30.0513L108.806 36.2736ZM44.5945 49.7198L34.5688 55.0913L33.4434 50.7822L44.5945 49.7198Z" fill="#BDE0FB"/>
<path d="M68.5656 14.3631C68.5656 15.0048 68.0456 15.5248 67.4039 15.5248C66.7622 15.5248 66.2422 15.0048 66.2422 14.3631C66.2422 13.7214 66.7622 13.2014 67.4039 13.2014C68.0456 13.2019 68.5656 13.7219 68.5656 14.3631Z" fill="#EEEDF7"/>
<path d="M100.675 28.2942C100.675 28.9358 100.155 29.4559 99.5133 29.4559C98.8716 29.4559 98.3516 28.9358 98.3516 28.2942C98.3516 27.6525 98.8716 27.1324 99.5133 27.1324C100.155 27.1324 100.675 27.6525 100.675 28.2942Z" fill="#BDE0FB"/>
<path d="M99.5148 43.9903C99.5148 44.632 98.9948 45.152 98.3531 45.152C97.7114 45.152 97.1914 44.632 97.1914 43.9903C97.1914 43.3486 97.7114 42.8286 98.3531 42.8286C98.9948 42.8291 99.5148 43.3491 99.5148 43.9903Z" fill="#EEEDF7"/>
<path d="M78.1379 20.4979C78.1379 21.1396 77.6179 21.6596 76.9762 21.6596C76.3345 21.6596 75.8145 21.1396 75.8145 20.4979C75.8145 19.8562 76.3345 19.3362 76.9762 19.3362C77.6179 19.3362 78.1379 19.8562 78.1379 20.4979Z" fill="#BDE0FB"/>
<path d="M58.9257 30.5097C58.9257 30.9711 58.5517 31.3456 58.0898 31.3456C57.6284 31.3456 57.2539 30.9716 57.2539 30.5097C57.2539 30.0483 57.6279 29.6738 58.0898 29.6738C58.5517 29.6738 58.9257 30.0478 58.9257 30.5097Z" fill="#EEEDF7"/>
<path d="M99.2284 68.615C98.8306 68.615 98.3796 68.3224 97.7265 67.8759C97.6974 67.856 97.6774 67.8254 97.6709 67.7907C97.6644 67.7561 97.6719 67.7203 97.6917 67.6912C97.7117 67.6622 97.7424 67.6423 97.777 67.6358C97.8116 67.6293 97.8473 67.6367 97.8765 67.6564C98.6364 68.1754 99.0297 68.4103 99.3461 68.3349C99.7857 68.2286 100.207 67.4538 101.045 65.9096L101.419 65.2227C102.111 63.9572 102.832 63.326 103.543 63.3294C104.44 63.3409 104.972 64.3561 104.995 64.3993C105.003 64.4148 105.008 64.4317 105.009 64.449C105.011 64.4664 105.009 64.4839 105.003 64.5005C104.998 64.5171 104.989 64.5325 104.978 64.5458C104.967 64.5591 104.953 64.5701 104.938 64.5781C104.873 64.6113 104.793 64.586 104.758 64.5209C104.754 64.512 104.276 63.6041 103.538 63.5957C102.926 63.5897 102.284 64.1956 101.652 65.3504L101.279 66.0368C100.348 67.7503 99.963 68.4595 99.4082 68.5936C99.3496 68.608 99.29 68.615 99.2284 68.615ZM50.2457 107.031H50.2377C49.1778 106.97 48.3255 106.571 47.7042 105.847C46.3225 104.236 46.5549 101.603 46.5654 101.491C46.5723 101.418 46.6428 101.365 46.7104 101.372C46.7834 101.379 46.837 101.444 46.8301 101.516C46.8276 101.542 46.5986 104.15 47.9064 105.674C48.479 106.341 49.2687 106.708 50.2531 106.766C50.3261 106.77 50.3822 106.833 50.3778 106.906C50.3758 106.94 50.361 106.972 50.3365 106.995C50.3119 107.018 50.2794 107.031 50.2457 107.031ZM48.8257 45.8309C48.805 45.8309 48.7846 45.8261 48.766 45.8168C48.7475 45.8075 48.7314 45.794 48.719 45.7774C48.7067 45.7609 48.6983 45.7416 48.6947 45.7212C48.691 45.7008 48.6922 45.6799 48.698 45.66C48.9593 44.778 49.0636 44.3314 48.8932 44.0528C48.6573 43.6669 47.7911 43.504 46.0647 43.1797L45.2954 43.0342C43.8789 42.7635 43.0534 42.2787 42.8423 41.5928C42.5781 40.7356 43.3807 39.9176 43.4155 39.8833C43.4278 39.871 43.4424 39.8612 43.4586 39.8545C43.4747 39.8478 43.4919 39.8444 43.5094 39.8444C43.5268 39.8444 43.5441 39.8478 43.5602 39.8545C43.5763 39.8612 43.5909 39.871 43.6032 39.8833C43.6156 39.8956 43.6254 39.9102 43.6322 39.9263C43.6389 39.9424 43.6424 39.9596 43.6424 39.9771C43.6425 39.9945 43.6391 40.0118 43.6324 40.0279C43.6258 40.044 43.616 40.0587 43.6037 40.071C43.5963 40.0785 42.8791 40.8116 43.0966 41.5158C43.2744 42.091 44.0522 42.5261 45.345 42.7729L46.1134 42.9184C48.0295 43.2785 48.8227 43.428 49.1197 43.9142C49.3581 44.3041 49.2111 44.8604 48.9523 45.7355C48.9445 45.763 48.9279 45.7872 48.905 45.8045C48.8822 45.8217 48.8543 45.8309 48.8257 45.8309Z" fill="#77C6EE"/>
<path d="M92.4334 84.9171C83.2804 84.9176 75.5597 80.772 69.5003 77.5188C65.2802 75.253 60.916 72.9107 59.2938 74.0069C39.0626 87.6657 20.3214 81.4315 19.5332 81.1594L22.5708 72.3624L21.052 76.7609L22.547 72.354C22.5852 72.3669 26.4389 73.6254 32.2489 73.4883C39.9373 73.3056 47.2844 70.8848 54.0858 66.2931C60.3666 62.0526 67.248 65.7463 73.9023 69.3188C81.2848 73.2822 89.6521 77.7751 99.43 74.4121C107.13 71.7639 111.131 69.7365 113.78 68.3945C119.366 65.564 121.332 65.124 129.465 66.9015L127.479 75.994C121.815 74.7568 121.816 74.7563 117.986 76.6968C115.11 78.154 110.764 80.3562 102.457 83.2131C98.9512 84.419 95.6056 84.9171 92.4334 84.9171Z" fill="#D3C848"/>
<path opacity="0.2" d="M125.696 70.8589C123.435 71.6273 121.224 71.445 118.887 71.2736C116.679 71.1117 113.927 70.8147 111.993 72.1448C110.955 72.8595 110.588 73.8434 110.195 74.9952C109.825 76.0799 109.388 76.9977 108.556 77.8053C106.728 79.5794 104.032 79.5213 101.736 80.4545C76.6821 90.6377 73.1931 72.8506 58.371 72.9991C55.999 73.0229 54.1563 70.4099 54.0098 71.2428C53.8499 72.1547 53.7108 73.0745 53.3825 73.9457C52.9162 75.1849 52.0718 76.0486 50.7974 76.4385C49.9928 76.6848 49.1455 76.7678 48.3096 76.8274C47.1384 76.9103 45.9435 76.9903 44.7713 76.9083C41.987 76.7126 39.2782 75.8231 36.4775 75.8017C35.1171 75.7913 33.8958 76.0834 32.8389 76.9739C32.0308 77.6548 31.405 78.5275 30.5746 79.1826C29.0061 80.4198 26.7319 80.7237 24.7954 80.5678C23.1931 80.4386 21.6341 79.9867 20.1585 79.3494L19.5332 81.1598C20.3214 81.432 39.0621 87.6661 59.2938 74.0073C60.916 72.9111 65.2802 75.2539 69.5004 77.5192C75.5597 80.7724 83.2804 84.9181 92.4334 84.9176C95.6057 84.9176 98.9512 84.4194 102.458 83.2135C110.765 80.3567 115.111 78.1545 117.987 76.6972C121.817 74.7568 121.816 74.7573 127.48 75.9945L128.991 69.0784C128 69.8462 126.886 70.4546 125.696 70.8589Z" fill="#395B64"/>
<path d="M78.5375 39.7011C78.5375 39.7011 79.7017 39.2193 79.3168 37.6062C79.3168 37.6062 80.3662 36.803 79.6778 35.2986C78.9895 33.7937 77.4269 34.575 77.4269 34.575C77.4269 34.575 76.5657 32.2888 74.9565 32.2019C73.3468 32.115 73.8678 32.9817 73.8678 32.9817C73.8678 32.9817 71.1446 31.5071 69.8294 32.6936C68.5143 33.8802 70.0058 35.5296 70.0058 35.5296C70.0058 35.5296 69.2503 35.9667 69.1157 37.0345C68.9002 38.7415 69.9253 38.9804 69.9253 38.9804C69.9253 38.9804 69.7748 40.7123 70.6559 41.0903C71.537 41.4682 78.6885 44.7373 78.5375 39.7011Z" fill="#2B4C54"/>
<path d="M76.3125 48.8452C76.3125 48.8452 75.1781 50.145 74.1267 50.145C73.0748 50.145 71.7988 49.1049 71.7988 49.1049C71.7988 49.1049 72.4077 47.7853 72.4405 46.9951C72.4599 46.4701 72.4773 46.0112 72.4773 45.9332H75.7995L75.8129 47.2891L76.3125 48.8452Z" fill="#FDAE88"/>
<path opacity="0.1" d="M75.8123 47.2896C75.2893 47.7257 74.7236 48.0083 74.2875 48.0083C73.7586 48.0083 73.0419 47.5936 72.4395 46.9951C72.4588 46.4701 72.4762 46.0112 72.4762 45.9332H75.7984L75.8123 47.2896Z" fill="#513F3C"/>
<path d="M79.5538 40.7247C79.2006 40.0363 78.5599 40.2335 78.1969 40.4212C78.181 38.9471 78.0067 37.8227 78.0067 37.8227C77.9942 37.7437 77.9694 37.6687 77.9317 37.5977C77.1986 36.2731 71.843 36.2234 70.7558 37.4437C70.6515 37.556 70.5894 37.6851 70.5686 37.8227C70.5686 37.8227 70.4052 38.9531 70.4017 40.4326C70.0426 40.2414 69.3835 40.0229 69.0239 40.7247C68.5218 41.7041 69.6507 43.1618 70.6043 43.1216C70.9739 45.2851 71.9478 47.2886 74.2881 47.2886C76.6736 47.2886 77.6515 45.2861 78.0116 43.1231C78.9563 43.1251 80.0494 41.6912 79.5538 40.7247Z" fill="#FDAE88"/>
<path d="M74.3425 46.2645C73.9303 46.2645 73.6899 46.0246 73.6859 46.0211C73.6687 46.0023 73.6595 45.9776 73.6602 45.9522C73.6609 45.9268 73.6714 45.9026 73.6896 45.8848C73.7078 45.867 73.7322 45.857 73.7576 45.8568C73.7831 45.8567 73.8076 45.8664 73.826 45.884C73.8434 45.9014 74.2581 46.3042 74.9604 45.8696C75.0066 45.8413 75.0667 45.8552 75.095 45.9014C75.1233 45.9471 75.1094 46.0077 75.0632 46.036C74.787 46.2069 74.5442 46.2645 74.3425 46.2645Z" fill="#FA9C70"/>
<path opacity="0.1" d="M70.7121 38.1485C71.0061 38.0725 71.2569 37.8818 71.5217 37.7412C71.845 37.5694 72.2021 37.4244 72.5691 37.3866C72.738 37.3692 72.9128 37.3762 73.0743 37.4338C73.2411 37.4934 73.3723 37.6121 73.5088 37.7209C73.5764 37.775 73.6474 37.8252 73.7269 37.8599C73.8232 37.9022 73.9231 37.917 74.0274 37.921C74.2489 37.929 74.4704 37.8887 74.6835 37.8306C74.8925 37.7735 75.1021 37.7 75.2973 37.6066C75.4846 37.5167 75.6832 37.4452 75.8899 37.4154C76.0925 37.3866 76.314 37.3936 76.5092 37.4591C76.6716 37.5138 76.8047 37.6235 76.9383 37.7268C77.0918 37.845 77.2512 37.9364 77.4444 37.9702C77.6381 38.0045 77.8343 37.9876 78.0295 37.9766C78.0161 37.8763 78.0076 37.8217 78.0076 37.8217C77.9952 37.7427 77.9704 37.6677 77.9326 37.5967C77.1996 36.2721 71.844 36.2224 70.7568 37.4427C70.6525 37.555 70.5904 37.6841 70.5696 37.8217C70.5696 37.8217 70.5512 37.9478 70.5273 38.1699C70.5889 38.1738 70.652 38.1644 70.7121 38.1485Z" fill="#FA9C70"/>
<path d="M74.1055 43.0109C73.9754 42.7173 74.1666 42.3836 74.1751 42.3692C74.1935 42.3378 74.2236 42.315 74.2588 42.3058C74.294 42.2966 74.3314 42.3017 74.3628 42.32C74.4289 42.3577 74.4507 42.4417 74.413 42.5077C74.3757 42.5723 74.2987 42.769 74.3603 42.9071C74.409 43.0069 74.5342 43.072 74.7333 43.1013C74.7512 43.1039 74.7684 43.11 74.7839 43.1192C74.7994 43.1285 74.8129 43.1407 74.8237 43.1552C74.8345 43.1696 74.8424 43.1861 74.8468 43.2036C74.8512 43.2211 74.8522 43.2393 74.8495 43.2572C74.8469 43.2751 74.8408 43.2923 74.8316 43.3078C74.8223 43.3233 74.8101 43.3368 74.7956 43.3476C74.7812 43.3584 74.7647 43.3662 74.7472 43.3707C74.7297 43.3751 74.7115 43.376 74.6936 43.3734C74.3981 43.3302 74.2024 43.2135 74.112 43.0258C74.11 43.0203 74.1075 43.0153 74.1055 43.0109ZM73.6938 45.0348C73.7097 45.2518 73.9888 45.4088 74.3171 45.3844C74.6454 45.3606 74.8992 45.1649 74.8833 44.9479C74.8674 44.7308 74.5883 44.5744 74.26 44.5982C73.9317 44.6221 73.6779 44.8177 73.6938 45.0348ZM79.2614 41.5765C79.2883 41.5765 79.3136 41.5606 79.324 41.5343C79.5525 40.9502 78.9679 40.605 78.9619 40.6015C78.9544 40.5971 78.946 40.5942 78.9373 40.593C78.9285 40.5918 78.9197 40.5924 78.9112 40.5946C78.9027 40.5969 78.8947 40.6008 78.8877 40.6062C78.8808 40.6116 78.8749 40.6182 78.8706 40.6259C78.8522 40.6577 78.8631 40.6989 78.8949 40.7173C78.9153 40.7292 79.3856 41.0093 79.1994 41.4851C79.1859 41.5194 79.2028 41.5586 79.2371 41.572C79.245 41.575 79.253 41.5765 79.2614 41.5765ZM76.8854 40.7565C76.8943 40.7143 76.8769 40.6691 76.8387 40.6442C75.9919 40.0915 75.2543 40.9005 75.2469 40.909C75.2067 40.9537 75.2116 41.0217 75.2553 41.0614C75.2995 41.1012 75.3676 41.0972 75.4078 41.053C75.4331 41.0252 76.0306 40.3746 76.7205 40.825C76.7707 40.8578 76.8372 40.8434 76.87 40.7937C76.8774 40.7818 76.8824 40.7694 76.8854 40.7565ZM73.4549 40.5951C73.4638 40.5529 73.4465 40.5077 73.4082 40.4828C72.5614 39.93 71.8239 40.7391 71.8164 40.7476C71.7762 40.7923 71.7811 40.8603 71.8248 40.9C71.869 40.9398 71.9371 40.9358 71.9773 40.8916C72.0027 40.8638 72.6001 40.2131 73.29 40.6636C73.3048 40.6732 73.3216 40.6791 73.3391 40.6807C73.3567 40.6824 73.3743 40.6797 73.3906 40.6729C73.4068 40.6662 73.4212 40.6555 73.4324 40.642C73.4436 40.6284 73.4513 40.6123 73.4549 40.5951ZM71.7349 39.8516C71.7349 39.8516 73.2751 40.0045 73.4514 39.8774C73.6277 39.7498 73.1971 39.3604 72.4978 39.4294C71.7985 39.4984 71.5611 39.8203 71.7349 39.8516ZM76.9206 39.8516C76.9206 39.8516 75.3805 40.0045 75.2042 39.8774C75.0278 39.7498 75.4585 39.3604 76.1578 39.4294C76.8571 39.4984 77.0945 39.8203 76.9206 39.8516ZM69.2308 41.5824C69.2039 41.5824 69.1786 41.5666 69.1682 41.5402C68.9397 40.9562 69.5243 40.611 69.5302 40.6075C69.5378 40.603 69.5462 40.6002 69.5549 40.599C69.5637 40.5978 69.5725 40.5983 69.581 40.6006C69.5895 40.6029 69.5975 40.6068 69.6044 40.6122C69.6114 40.6175 69.6173 40.6242 69.6216 40.6318C69.64 40.6636 69.6291 40.7048 69.5973 40.7232C69.5774 40.7351 69.1066 41.0153 69.2928 41.4911C69.3063 41.5253 69.2894 41.5646 69.2551 41.578C69.2467 41.581 69.2387 41.5824 69.2308 41.5824Z" fill="#2B4C54"/>
<path d="M62.6678 67.7166L63.7023 67.9286L61.7842 71.1719L60.5415 70.9176L60.0488 67.1802L61.0883 67.3932L61.364 70.0752L62.6678 67.7166ZM65.3676 68.6215L66.288 68.9866L64.9748 72.2963L64.0549 71.9313L65.3676 68.6215ZM69.407 70.329C70.2171 70.708 70.5752 71.4451 70.3924 72.2521L69.4269 71.8002C69.4259 71.5042 69.2729 71.2707 69.0077 71.1461C68.596 70.9534 68.1758 71.1475 67.9443 71.6417C67.7109 72.1409 67.8311 72.5874 68.2428 72.7806C68.5081 72.9048 68.7857 72.873 69.0137 72.6837L69.9792 73.1357C69.4761 73.7928 68.6809 73.99 67.8708 73.6105C66.9003 73.1566 66.5815 72.1811 67.0335 71.2156C67.4834 70.2545 68.4365 69.8746 69.407 70.329ZM72.1382 71.6815L74.7194 72.9609L74.3692 73.6671L73.5179 73.245L72.2862 75.7313L71.3987 75.2912L72.6304 72.8054L71.788 72.3882L72.1382 71.6815ZM75.8831 77.5486C74.9751 77.1056 74.5719 76.0655 75.0412 75.103C75.5111 74.1405 76.5764 73.8226 77.4843 74.2656C78.3972 74.7111 78.7935 75.7417 78.3237 76.7048C77.8543 77.6673 76.791 77.9916 75.8831 77.5486ZM76.2863 76.7226C76.7448 76.9461 77.1789 76.7589 77.4207 76.2642C77.6666 75.7606 77.5449 75.3071 77.086 75.0836C76.6231 74.8577 76.1955 75.0424 75.9496 75.5465C75.7077 76.0412 75.823 76.4962 76.2863 76.7226ZM81.707 76.3069C82.5145 76.6675 82.7142 77.3107 82.4545 77.8918C82.2647 78.3159 81.8694 78.5822 81.3191 78.5136L81.486 80.1099L80.4757 79.6584L80.366 78.1704L80.2691 78.1272L79.7332 79.3267L78.8288 78.9224L80.282 75.6702L81.707 76.3069ZM81.2952 77.0306L80.8477 76.8304L80.5448 77.5089L80.9923 77.709C81.2366 77.8183 81.4149 77.7537 81.5138 77.5322C81.6042 77.3296 81.5396 77.1403 81.2952 77.0306ZM83.9112 77.2794L84.9745 77.6678L85.0918 79.1742L86.1516 78.0979L87.2006 78.4808L85.1901 80.3349L84.8022 81.3983L83.867 81.0565L84.2549 79.9932L83.9112 77.2794Z" fill="#E2D661"/>
<path d="M90.2386 72.5332C90.2341 72.5367 90.2296 72.5397 90.2252 72.5431C89.1568 73.309 87.5024 72.9996 84.891 72.4309C84.8514 72.4223 84.814 72.406 84.7807 72.3829C84.7475 72.3599 84.7191 72.3305 84.6973 72.2964C84.6754 72.2624 84.6605 72.2244 84.6533 72.1845C84.6461 72.1447 84.6469 72.1039 84.6555 72.0644C84.6641 72.0247 84.6803 71.9872 84.7034 71.9539C84.7265 71.9206 84.756 71.8922 84.7901 71.8703C84.8242 71.8484 84.8623 71.8335 84.9022 71.8264C84.9421 71.8193 84.983 71.8202 85.0226 71.8289C87.7031 72.4125 89.055 72.6241 89.8661 72.0425C89.869 72.0405 89.872 72.038 89.875 72.036C90.9841 71.228 91.2776 68.6274 91.8612 63.4601C91.9416 62.7464 92.0281 61.982 92.1234 61.1635C92.4875 58.0256 93.7182 55.8755 95.7799 54.7769C100.287 52.373 107.091 55.8199 107.379 55.9679C107.531 56.0459 107.59 56.2316 107.512 56.3831C107.434 56.5346 107.248 56.5942 107.097 56.5162C107.029 56.4819 100.29 53.0688 96.0689 55.3217C94.197 56.3205 93.075 58.3107 92.7358 61.2345C92.6409 62.0525 92.5545 62.8164 92.4741 63.5296C91.8512 69.0397 91.5657 71.5657 90.2386 72.5332Z" fill="#77C6EE"/>
</svg>
