<svg width="20" height="26" viewBox="0 0 20 26" fill="none" xmlns="http://www.w3.org/2000/svg">
<path d="M18.8949 8.71356C18.3429 4.73656 15.0419 1.51956 11.0449 1.06156C8.53986 0.773563 6.10586 1.50256 4.19386 3.11156C2.30686 4.69956 1.14286 7.01756 1.00086 9.47156C0.984857 9.74756 1.19486 9.98456 1.47086 9.99956C1.74686 10.0216 1.98286 9.80556 1.99886 9.52956C2.12486 7.34756 3.15986 5.28756 4.83786 3.87556C6.53686 2.44656 8.70086 1.79756 10.9309 2.05556C14.4809 2.46156 17.4139 5.31956 17.9049 8.85056C18.0969 10.2376 17.9359 11.6426 17.4379 12.9136C16.9499 14.1616 15.6619 15.0006 14.2329 15.0006H11.7159C11.8869 14.7066 11.9849 14.3646 11.9849 14.0006C11.9849 12.8976 11.0879 12.0006 9.98486 12.0006C8.88186 12.0006 7.98486 12.8976 7.98486 14.0006C7.98486 15.1036 8.88186 16.0006 9.98486 16.0006H14.2329C16.0689 16.0006 17.7319 14.9066 18.3699 13.2786C18.9299 11.8466 19.1109 10.2686 18.8949 8.71356ZM8.98486 14.0006C8.98486 13.4486 9.43386 13.0006 9.98486 13.0006C10.5359 13.0006 10.9849 13.4486 10.9849 14.0006C10.9849 14.5526 10.5359 15.0006 9.98486 15.0006C9.43386 15.0006 8.98486 14.5526 8.98486 14.0006ZM14.4399 12.2726C14.8009 11.5656 14.9849 10.8016 14.9849 10.0006C14.9849 7.24356 12.7419 5.00056 9.98486 5.00056C7.22786 5.00056 4.98486 7.24356 4.98486 10.0006C4.98486 11.1596 5.39086 12.2896 6.12786 13.1826C6.30386 13.3956 6.27386 13.7106 6.06086 13.8866C5.96786 13.9636 5.85486 14.0006 5.74286 14.0006C5.59886 14.0006 5.45586 13.9386 5.35686 13.8186C4.47286 12.7476 3.98486 11.3916 3.98486 10.0006C3.98486 6.69156 6.67586 4.00056 9.98486 4.00056C13.2939 4.00056 15.9849 6.69156 15.9849 10.0006C15.9849 10.9616 15.7649 11.8796 15.3309 12.7286C15.2039 12.9746 14.8999 13.0706 14.6579 12.9466C14.4119 12.8206 14.3139 12.5176 14.4399 12.2726ZM17.9739 24.3986C18.0309 24.6696 17.8569 24.9336 17.5859 24.9896C17.3209 25.0506 17.0509 24.8736 16.9949 24.6016C16.3189 21.3556 13.3709 18.9996 9.98386 18.9996C6.59686 18.9996 3.64886 21.3546 2.97386 24.6016C2.92486 24.8376 2.71686 24.9996 2.48486 24.9996C2.45086 24.9996 2.41686 24.9966 2.38286 24.9886C2.11186 24.9326 1.93886 24.6686 1.99486 24.3976C2.76586 20.6896 6.12586 17.9996 9.98486 17.9996C13.8439 17.9996 17.2029 20.6896 17.9739 24.3976V24.3986Z" fill="white" stroke="white" stroke-width="0.5"/>
</svg>
