<svg width="24" height="24" viewBox="0 0 24 24" fill="none" xmlns="http://www.w3.org/2000/svg">
<path d="M22.0833 21.1667H5.58333C4.85399 21.1667 4.15451 20.8769 3.63879 20.3612C3.12306 19.8455 2.83333 19.146 2.83333 18.4167V1.91667C2.83333 1.67355 2.73676 1.44039 2.56485 1.26849C2.39294 1.09658 2.15978 1 1.91667 1C1.67355 1 1.44039 1.09658 1.26849 1.26849C1.09658 1.44039 1 1.67355 1 1.91667L1 18.4167C1.00146 19.6318 1.48481 20.7967 2.34403 21.656C3.20326 22.5152 4.3682 22.9985 5.58333 23H22.0833C22.3264 23 22.5596 22.9034 22.7315 22.7315C22.9034 22.5596 23 22.3264 23 22.0833C23 21.8402 22.9034 21.6071 22.7315 21.4352C22.5596 21.2632 22.3264 21.1667 22.0833 21.1667Z" fill="white" stroke="white" stroke-width="0.15"/>
<path d="M6.50001 19.3333C6.74313 19.3333 6.97628 19.2367 7.14819 19.0648C7.3201 18.8929 7.41668 18.6598 7.41668 18.4166V12C7.41668 11.7569 7.3201 11.5237 7.14819 11.3518C6.97628 11.1799 6.74313 11.0833 6.50001 11.0833C6.2569 11.0833 6.02374 11.1799 5.85183 11.3518C5.67992 11.5237 5.58334 11.7569 5.58334 12V18.4166C5.58334 18.6598 5.67992 18.8929 5.85183 19.0648C6.02374 19.2367 6.2569 19.3333 6.50001 19.3333Z" fill="white" stroke="white" stroke-width="0.15"/>
<path d="M10.1667 10.1667V18.4167C10.1667 18.6598 10.2632 18.8929 10.4351 19.0648C10.6071 19.2368 10.8402 19.3333 11.0833 19.3333C11.3264 19.3333 11.5596 19.2368 11.7315 19.0648C11.9034 18.8929 12 18.6598 12 18.4167V10.1667C12 9.92355 11.9034 9.69039 11.7315 9.51849C11.5596 9.34658 11.3264 9.25 11.0833 9.25C10.8402 9.25 10.6071 9.34658 10.4351 9.51849C10.2632 9.69039 10.1667 9.92355 10.1667 10.1667Z" fill="white" stroke="white" stroke-width="0.15"/>
<path d="M14.75 12.9167V18.4167C14.75 18.6598 14.8466 18.8929 15.0185 19.0648C15.1904 19.2368 15.4236 19.3333 15.6667 19.3333C15.9098 19.3333 16.1429 19.2368 16.3148 19.0648C16.4868 18.8929 16.5833 18.6598 16.5833 18.4167V12.9167C16.5833 12.6736 16.4868 12.4404 16.3148 12.2685C16.1429 12.0966 15.9098 12 15.6667 12C15.4236 12 15.1904 12.0966 15.0185 12.2685C14.8466 12.4404 14.75 12.6736 14.75 12.9167Z" fill="white" stroke="white" stroke-width="0.15"/>
<path d="M19.3333 9.24998V18.4166C19.3333 18.6598 19.4299 18.8929 19.6018 19.0648C19.7737 19.2367 20.0069 19.3333 20.25 19.3333C20.4931 19.3333 20.7263 19.2367 20.8982 19.0648C21.0701 18.8929 21.1667 18.6598 21.1667 18.4166V9.24998C21.1667 9.00686 21.0701 8.77371 20.8982 8.6018C20.7263 8.42989 20.4931 8.33331 20.25 8.33331C20.0069 8.33331 19.7737 8.42989 19.6018 8.6018C19.4299 8.77371 19.3333 9.00686 19.3333 9.24998Z" fill="white" stroke="white" stroke-width="0.15"/>
<path d="M6.49998 9.24997C6.74308 9.24991 6.9762 9.1533 7.14807 8.98138L10.4352 5.69422C10.61 5.52777 10.842 5.43493 11.0833 5.43493C11.3246 5.43493 11.5567 5.52777 11.7314 5.69422L13.7224 7.68522C14.2381 8.20076 14.9374 8.49038 15.6667 8.49038C16.3959 8.49038 17.0952 8.20076 17.6109 7.68522L22.7314 2.56472C22.8984 2.39183 22.9908 2.16028 22.9887 1.91993C22.9866 1.67958 22.8902 1.44967 22.7202 1.27972C22.5503 1.10976 22.3204 1.01335 22.08 1.01127C21.8397 1.00918 21.6081 1.10157 21.4352 1.26855L16.3147 6.38813C16.1428 6.55998 15.9097 6.65652 15.6667 6.65652C15.4236 6.65652 15.1905 6.55998 15.0186 6.38813L13.0276 4.39805C12.5119 3.8825 11.8125 3.59289 11.0833 3.59289C10.3541 3.59289 9.65477 3.8825 9.13907 4.39805L5.8519 7.68522C5.72374 7.81341 5.63647 7.97673 5.60111 8.15452C5.56576 8.33231 5.58391 8.51659 5.65328 8.68407C5.72264 8.85154 5.8401 8.99469 5.99081 9.09542C6.14152 9.19615 6.31871 9.24993 6.49998 9.24997Z" fill="white" stroke="white" stroke-width="0.15"/>
</svg>
