<svg width="24" height="20" viewBox="0 0 24 20" fill="none" xmlns="http://www.w3.org/2000/svg">
<path d="M16.7159 18.5966V16.7092C16.7159 15.708 16.3182 14.7478 15.6102 14.0399C14.9023 13.332 13.9421 12.9343 12.941 12.9343H5.39117C4.39001 12.9343 3.42985 13.332 2.72191 14.0399C2.01398 14.7478 1.61627 15.708 1.61627 16.7092V18.5966" stroke="white" stroke-width="1.66096" stroke-linecap="round" stroke-linejoin="round"/>
<path d="M9.16607 9.15936C11.2509 9.15936 12.941 7.46928 12.941 5.38446C12.941 3.29964 11.2509 1.60956 9.16607 1.60956C7.08125 1.60956 5.39117 3.29964 5.39117 5.38446C5.39117 7.46928 7.08125 9.15936 9.16607 9.15936Z" stroke="white" stroke-width="1.66096" stroke-linecap="round" stroke-linejoin="round"/>
<path d="M22.3782 18.5966V16.7092C22.3776 15.8728 22.0992 15.0603 21.5868 14.3992C21.0743 13.7382 20.3569 13.266 19.547 13.0569" stroke="white" stroke-width="1.66096" stroke-linecap="round" stroke-linejoin="round"/>
<path d="M15.7721 1.73227C16.5841 1.94017 17.3038 2.41241 17.8178 3.07454C18.3317 3.73667 18.6107 4.55102 18.6107 5.3892C18.6107 6.22739 18.3317 7.04174 17.8178 7.70387C17.3038 8.366 16.5841 8.83824 15.7721 9.04614" stroke="white" stroke-width="1.66096" stroke-linecap="round" stroke-linejoin="round"/>
</svg>
