<svg width="24" height="25" viewBox="0 0 24 25" fill="none" xmlns="http://www.w3.org/2000/svg">
<path d="M24 10.1429V16.2299C24 19.0268 21.757 21.3023 19 21.3023H13V22.3168H16C16.553 22.3168 17 22.7703 17 23.3313C17 23.8923 16.553 24.3458 16 24.3458H8C7.447 24.3458 7 23.8923 7 23.3313C7 22.7703 7.447 22.3168 8 22.3168H11V21.3023H5C2.243 21.3023 0 19.0268 0 16.2299V10.1429C0 7.82681 1.542 5.80696 3.751 5.23072C4.282 5.09478 4.831 5.41739 4.969 5.96014C5.107 6.5029 4.784 7.0558 4.249 7.19478C2.925 7.54072 2 8.75304 2 10.1429V16.2299C2 17.9078 3.346 19.2733 5 19.2733H19C20.654 19.2733 22 17.9078 22 16.2299V10.1429C22 8.75304 21.075 7.54072 19.751 7.19478C19.216 7.0558 18.894 6.50188 19.031 5.96014C19.169 5.41739 19.72 5.09377 20.249 5.23072C22.458 5.80696 24 7.82681 24 10.1429ZM6.304 9.26435L7.257 8.70638C7.09 8.20116 7 7.66145 7 7.10043C7 6.53942 7.091 5.9987 7.257 5.49449L6.304 4.93652C5.825 4.65652 5.661 4.03565 5.938 3.55072C6.214 3.06478 6.826 2.89841 7.304 3.17942L8.26 3.73942C8.966 2.9329 9.92 2.35464 11 2.13145V1.01449C11 0.454493 11.447 0 12 0C12.553 0 13 0.454493 13 1.01449V2.13145C14.08 2.35464 15.035 2.9329 15.74 3.73942L16.696 3.17942C17.172 2.89841 17.785 3.06478 18.062 3.55072C18.338 4.03667 18.174 4.65652 17.696 4.93652L16.743 5.49449C16.91 5.99971 17 6.53942 17 7.10043C17 7.66145 16.909 8.20217 16.743 8.70638L17.696 9.26435C18.175 9.54435 18.339 10.1652 18.062 10.6501C17.876 10.9758 17.541 11.1574 17.195 11.1574C17.025 11.1574 16.853 11.1138 16.696 11.0214L15.74 10.4614C15.034 11.268 14.08 11.8462 13 12.0694V13.1864C13 13.7474 12.553 14.2009 12 14.2009C11.447 14.2009 11 13.7474 11 13.1864V12.0694C9.92 11.8462 8.965 11.268 8.26 10.4614L7.304 11.0214C7.147 11.1138 6.975 11.1574 6.805 11.1574C6.459 11.1574 6.123 10.9758 5.938 10.6501C5.662 10.1642 5.826 9.54435 6.304 9.26435ZM9 7.09942C9 8.77739 10.346 10.1429 12 10.1429C13.654 10.1429 15 8.77739 15 7.09942C15 5.42145 13.654 4.05594 12 4.05594C10.346 4.05594 9 5.42145 9 7.09942Z" fill="white"/>
</svg>
