<svg width="25" height="25" viewBox="0 0 25 25" fill="none" xmlns="http://www.w3.org/2000/svg">
<path d="M23.5208 19.2083H8.1875C6.33792 19.2083 4.83333 17.7037 4.83333 15.8542V4.35417C4.83333 2.50458 3.32875 1 1.47917 1C1.21467 1 1 1.21467 1 1.47917C1 1.74367 1.21467 1.95833 1.47917 1.95833C2.79975 1.95833 3.875 3.03262 3.875 4.35417V15.8542C3.875 17.7287 5.07675 19.3272 6.75 19.9204V21.125C6.75 22.7101 8.03992 24 9.625 24C11.2101 24 12.5 22.7101 12.5 21.125V20.1667H16.3333V21.125C16.3333 22.7101 17.6232 24 19.2083 24C20.7934 24 22.0833 22.7101 22.0833 21.125V20.1667H23.5208C23.7853 20.1667 24 19.952 24 19.6875C24 19.423 23.7853 19.2083 23.5208 19.2083ZM11.5417 21.125C11.5417 22.182 10.682 23.0417 9.625 23.0417C8.56796 23.0417 7.70833 22.182 7.70833 21.125V20.1398C7.8655 20.1571 8.02554 20.1667 8.1875 20.1667H11.5417V21.125ZM21.125 21.125C21.125 22.182 20.2654 23.0417 19.2083 23.0417C18.1513 23.0417 17.2917 22.182 17.2917 21.125V20.1667H21.125V21.125ZM21.6042 10.5833H9.14583C7.82525 10.5833 6.75 11.6576 6.75 12.9792V14.8958C6.75 16.2174 7.82525 17.2917 9.14583 17.2917H21.6042C22.9247 17.2917 24 16.2174 24 14.8958V12.9792C24 11.6576 22.9247 10.5833 21.6042 10.5833ZM23.0417 14.8958C23.0417 15.6884 22.3967 16.3333 21.6042 16.3333H9.14583C8.35329 16.3333 7.70833 15.6884 7.70833 14.8958V12.9792C7.70833 12.1866 8.35329 11.5417 9.14583 11.5417H21.6042C22.3967 11.5417 23.0417 12.1866 23.0417 12.9792V14.8958ZM9.14583 8.66667H12.0208C13.3414 8.66667 14.4167 7.59237 14.4167 6.27083V3.39583C14.4167 2.07429 13.3414 1 12.0208 1H9.14583C7.82525 1 6.75 2.07429 6.75 3.39583V6.27083C6.75 7.59237 7.82525 8.66667 9.14583 8.66667ZM7.70833 3.39583C7.70833 2.60329 8.35329 1.95833 9.14583 1.95833H12.0208C12.8134 1.95833 13.4583 2.60329 13.4583 3.39583V6.27083C13.4583 7.06337 12.8134 7.70833 12.0208 7.70833H9.14583C8.35329 7.70833 7.70833 7.06337 7.70833 6.27083V3.39583ZM21.6042 2.91667H18.7292C17.4086 2.91667 16.3333 3.99096 16.3333 5.3125V6.27083C16.3333 7.59237 17.4086 8.66667 18.7292 8.66667H21.6042C22.9247 8.66667 24 7.59237 24 6.27083V5.3125C24 3.99096 22.9247 2.91667 21.6042 2.91667ZM23.0417 6.27083C23.0417 7.06337 22.3967 7.70833 21.6042 7.70833H18.7292C17.9366 7.70833 17.2917 7.06337 17.2917 6.27083V5.3125C17.2917 4.51996 17.9366 3.875 18.7292 3.875H21.6042C22.3967 3.875 23.0417 4.51996 23.0417 5.3125V6.27083Z" fill="white" stroke="white" stroke-width="0.6"/>
</svg>
