<svg width="26" height="26" viewBox="0 0 26 26" fill="none" xmlns="http://www.w3.org/2000/svg">
<path d="M21.5 12H19V8.5C19 6.57 17.43 5 15.5 5H14C14 2.794 12.206 1 10 1C7.794 1 6 2.794 6 5H4.5C2.57 5 1 6.57 1 8.5V14.5C1 16.981 3.019 19 5.5 19H8V20.5C8 22.981 10.019 25 12.5 25H20.5C22.981 25 25 22.981 25 20.5V15.5C25 13.57 23.43 12 21.5 12ZM10 2C11.654 2 13 3.346 13 5H7C7 3.346 8.346 2 10 2ZM5.5 18C3.57 18 2 16.43 2 14.5V8.5C2 7.121 3.122 6 4.5 6H6V8.5C6 8.776 6.224 9 6.5 9C6.776 9 7 8.776 7 8.5V6H13V8.5C13 8.776 13.224 9 13.5 9C13.776 9 14 8.776 14 8.5V6H15.5C16.878 6 18 7.121 18 8.5V12H11.5C9.57 12 8 13.57 8 15.5V18H5.5ZM24 20.5C24 22.43 22.43 24 20.5 24H12.5C10.57 24 9 22.43 9 20.5V15.5C9 14.121 10.122 13 11.5 13H21.5C22.878 13 24 14.121 24 15.5V20.5ZM20 15.5V17.5C20 19.43 18.43 21 16.5 21C14.57 21 13 19.43 13 17.5V15.5C13 15.224 13.224 15 13.5 15C13.776 15 14 15.224 14 15.5V17.5C14 18.879 15.122 20 16.5 20C17.878 20 19 18.879 19 17.5V15.5C19 15.224 19.224 15 19.5 15C19.776 15 20 15.224 20 15.5Z" fill="white" stroke="white" stroke-width="0.6"/>
</svg>
